#!OML:ASF G:\JayActor3\Patient Classification 1\Patient 1\Session 6\male.ASF
:FULLY-SPECIFIED
:DEGREES
2203
root -16.3417 15.5709 11.34 457.812 -88.5634 -444.692
lowerback 33.6834 0.183374 -1.61575
upperback 14.6687 -2.02248 0.134459
thorax -1.06943 -1.78334 1.61501
lowerneck 5.29485 -12.9676 -4.21664
upperneck -27.4905 -15.3012 21.522
head -7.03777 -9.91623 8.92482
rclavicle 1.59028e-015 -3.89618e-014
rhumerus -14.6461 8.42894 -74.3018
rradius 57.676
rwrist -4.73908
rhand -27.3955 -5.83726
rfingers 7.12502
rthumb -0.802095 -35.8155
lclavicle 1.59028e-015 -3.89618e-014
lhumerus -1.95683 -13.1243 61.8783
lradius 58.532
lwrist 30.9291
lhand -27.652 1.77787
lfingers 7.12502
lthumb -1.04979 31.755
rfemur -52.9592 -9.15129 22.7689
rtibia 71.7701
rfoot -28.5215 -27.9745
rtoes 2.3842
lfemur -50.2979 18.8337 -27.0151
ltibia 57.2825
lfoot -20.2113 16.898
ltoes -2.33953
2204
root -16.3755 15.5765 11.3489 465.461 -88.6001 -452.313
lowerback 33.6928 0.158417 -1.59699
upperback 14.677 -2.05321 0.151811
thorax -1.0626 -1.80067 1.63236
lowerneck 5.23345 -12.9477 -4.22347
upperneck -27.4144 -15.2714 21.5574
head -7.00128 -9.90144 8.92255
rclavicle -1.90833e-014 3.18055e-015
rhumerus -14.5826 8.37893 -74.2635
rradius 57.7442
rwrist -4.75514
rhand -27.4258 -5.84864
rfingers 7.12502
rthumb -0.8313 -35.8268
lclavicle -1.90833e-014 3.18055e-015
lhumerus -1.9544 -13.1249 61.8771
lradius 58.5455
lwrist 30.9268
lhand -27.5471 1.96007
lfingers 7.12502
lthumb -0.948469 31.9377
rfemur -53.294 -9.22453 22.9946
rtibia 71.2524
rfoot -29.1796 -28.25
rtoes 2.05272
lfemur -50.1405 18.8105 -27.0159
ltibia 57.2776
lfoot -20.3067 17.1421
ltoes -2.56882
2205
root -16.4095 15.5821 11.356 473.203 -88.6084 -460.036
lowerback 33.7238 0.139311 -1.57263
upperback 14.7012 -2.07818 0.181869
thorax -1.04628 -1.81702 1.65823
lowerneck 5.14017 -12.94 -4.23677
upperneck -27.3202 -15.2619 21.5894
head -6.94995 -9.89414 8.91433
rclavicle 2.22639e-014 3.29983e-014
rhumerus -14.4988 8.34081 -74.1978
rradius 57.8083
rwrist -4.79102
rhand -27.4557 -5.87296
rfingers 7.12502
rthumb -0.860176 -35.851
lclavicle 2.22639e-014 3.29983e-014
lhumerus -1.92338 -13.1164 61.8904
lradius 58.5602
lwrist 30.9242
lhand -27.4917 2.07618
lfingers 7.12502
lthumb -0.894991 32.054
rfemur -53.568 -9.26069 23.2156
rtibia 70.6022
rfoot -29.9747 -28.5938
rtoes 1.86253
lfemur -49.9672 18.7838 -27.0029
ltibia 57.2664
lfoot -20.3939 17.4056
ltoes -2.83769
2206
root -16.4432 15.5877 11.3611 480.201 -88.5916 -467.022
lowerback 33.7727 0.119643 -1.53848
upperback 14.7341 -2.10252 0.225045
thorax -1.02661 -1.83403 1.69253
lowerneck 5.0516 -12.9395 -4.27076
upperneck -27.2213 -15.2631 21.6317
head -6.89322 -9.89103 8.91192
rclavicle -1.66979e-014 -3.18055e-015
rhumerus -14.4118 8.31627 -74.116
rradius 57.865
rwrist -4.82768
rhand -27.4883 -5.89183
rfingers 7.12502
rthumb -0.891705 -35.8697
lclavicle -1.66979e-014 -3.18055e-015
lhumerus -1.87468 -13.1048 61.9143
lradius 58.5785
lwrist 30.9253
lhand -27.476 2.10833
lfingers 7.12502
lthumb -0.879798 32.0863
rfemur -53.7783 -9.26651 23.4299
rtibia 69.8068
rfoot -30.8216 -28.9668
rtoes 1.75954
lfemur -49.7891 18.7474 -26.9754
ltibia 57.2549
lfoot -20.4817 17.6733
ltoes -3.09785
2207
root -16.4763 15.5927 11.3638 485.854 -88.5661 -472.656
lowerback 33.8295 0.0922259 -1.49216
upperback 14.7692 -2.13258 0.277931
thorax -1.00705 -1.85374 1.73236
lowerneck 4.97864 -12.9415 -4.30505
upperneck -27.1173 -15.2678 21.6666
head -6.838 -9.88839 8.9082
rclavicle -6.83819e-014 1.63003e-014
rhumerus -14.3334 8.3004 -74.0342
rradius 57.9103
rwrist -4.85393
rhand -27.5181 -5.90016
rfingers 7.12502
rthumb -0.920448 -35.8779
lclavicle -6.83819e-014 1.63003e-014
lhumerus -1.81823 -13.0946 61.9445
lradius 58.6068
lwrist 30.9284
lhand -27.5138 2.04356
lfingers 7.12502
lthumb -0.916307 32.0213
rfemur -53.9313 -9.24756 23.6294
rtibia 68.8621
rfoot -31.6613 -29.3076
rtoes 1.76971
lfemur -49.624 18.6968 -26.9422
ltibia 57.2458
lfoot -20.5773 17.9236
ltoes -3.29611
2208
root -16.5089 15.5976 11.3642 490.42 -88.5323 -477.203
lowerback 33.8968 0.0600314 -1.43451
upperback 14.8045 -2.16503 0.339984
thorax -0.99083 -1.87451 1.77674
lowerneck 4.92878 -12.9407 -4.34799
upperneck -27.0096 -15.2688 21.6987
head -6.78572 -9.88251 8.90677
rclavicle -1.27222e-014 3.81667e-014
rhumerus -14.2678 8.29292 -73.9577
rradius 57.9415
rwrist -4.86092
rhand -27.5439 -5.89886
rfingers 7.12502
rthumb -0.945442 -35.8765
lclavicle -1.27222e-014 3.81667e-014
lhumerus -1.76062 -13.0856 61.9804
lradius 58.6453
lwrist 30.9365
lhand -27.5288 1.98119
lfingers 7.12502
lthumb -0.930773 31.9589
rfemur -54.0204 -9.18685 23.807
rtibia 67.7721
rfoot -32.3638 -29.6303
rtoes 1.78343
lfemur -49.4653 18.6364 -26.8954
ltibia 57.2367
lfoot -20.7042 18.1439
ltoes -3.35805
2209
root -16.5415 15.6031 11.3628 494.392 -88.4901 -481.163
lowerback 33.9758 0.0264357 -1.36439
upperback 14.8431 -2.19651 0.403765
thorax -0.975403 -1.89466 1.81627
lowerneck 4.90018 -12.9338 -4.39433
upperneck -26.8948 -15.2602 21.7288
head -6.73626 -9.87099 8.90678
rclavicle -1.11319e-014 2.42517e-014
rhumerus -14.2141 8.28533 -73.8957
rradius 57.9551
rwrist -4.84239
rhand -27.5532 -5.89513
rfingers 7.12502
rthumb -0.95442 -35.8727
lclavicle -1.11319e-014 2.42517e-014
lhumerus -1.70288 -13.0804 62.0189
lradius 58.694
lwrist 30.9474
lhand -27.5461 1.89163
lfingers 7.12502
lthumb -0.947528 31.8693
rfemur -54.0279 -9.06874 23.9322
rtibia 66.5996
rfoot -32.7601 -29.8123
rtoes 2.06278
lfemur -49.2929 18.5795 -26.8357
ltibia 57.2192
lfoot -20.8455 18.3448
ltoes -3.33924
2210
root -16.5737 15.609 11.3594 497.941 -88.4472 -484.703
lowerback 34.0574 -0.007697 -1.28761
upperback 14.8826 -2.22681 0.467129
thorax -0.960027 -1.91392 1.85159
lowerneck 4.88941 -12.923 -4.4424
upperneck -26.766 -15.2453 21.7577
head -6.68637 -9.85498 8.907
rclavicle 2.38542e-014 -5.56597e-015
rhumerus -14.1717 8.28041 -73.8417
rradius 57.9503
rwrist -4.8165
rhand -27.5358 -5.89671
rfingers 7.12502
rthumb -0.937556 -35.8744
lclavicle 2.38542e-014 -5.56597e-015
lhumerus -1.64716 -13.0869 62.0589
lradius 58.7468
lwrist 30.9651
lhand -27.5567 1.81519
lfingers 7.12502
lthumb -0.957722 31.7928
rfemur -53.9806 -8.90929 24.0022
rtibia 65.454
rfoot -32.6965 -30.0207
rtoes 2.34253
lfemur -49.1153 18.5219 -26.7719
ltibia 57.1921
lfoot -20.9734 18.5421
ltoes -3.32939
2211
root -16.6068 15.6161 11.3548 502.073 -88.38 -488.861
lowerback 34.159 -0.0258371 -1.21272
upperback 14.9319 -2.24176 0.521991
thorax -0.941636 -1.92674 1.87465
lowerneck 4.88594 -12.9115 -4.48701
upperneck -26.6178 -15.2285 21.7861
head -6.63228 -9.83682 8.90526
rclavicle 0 -2.34566e-014
rhumerus -14.142 8.27293 -73.7985
rradius 57.9292
rwrist -4.78684
rhand -27.4913 -5.89994
rfingers 7.12502
rthumb -0.894616 -35.8778
lclavicle 0 -2.34566e-014
lhumerus -1.58876 -13.1101 62.0958
lradius 58.7972
lwrist 30.9903
lhand -27.58 1.72406
lfingers 7.12502
lthumb -0.980259 31.7016
rfemur -53.8495 -8.70002 24.0091
rtibia 64.4868
rfoot -32.4428 -30.1531
rtoes 2.81782
lfemur -48.8864 18.4984 -26.6959
ltibia 57.1538
lfoot -21.1113 18.7334
ltoes -3.29315
2212
root -16.6393 15.6229 11.3483 506.099 -88.3174 -492.921
lowerback 34.2593 -0.0415115 -1.13832
upperback 14.9842 -2.25439 0.569243
thorax -0.919865 -1.93821 1.88926
lowerneck 4.88436 -12.9042 -4.522
upperneck -26.4474 -15.2169 21.8108
head -6.57217 -9.81986 8.8987
rclavicle -1.90833e-014 1.98785e-015
rhumerus -14.1331 8.25631 -73.7688
rradius 57.8989
rwrist -4.75568
rhand -27.4175 -5.91125
rfingers 7.12502
rthumb -0.823278 -35.8894
lclavicle -1.90833e-014 1.98785e-015
lhumerus -1.52568 -13.1562 62.1272
lradius 58.8383
lwrist 31.0186
lhand -27.5968 1.64806
lfingers 7.12502
lthumb -0.99645 31.6255
rfemur -53.6994 -8.48132 23.9612
rtibia 63.8147
rfoot -32.0612 -30.3182
rtoes 3.27029
lfemur -48.6506 18.4751 -26.6265
ltibia 57.1179
lfoot -21.2393 18.9183
ltoes -3.26641
2213
root -16.6712 15.6278 11.3398 510.168 -88.2727 -497.026
lowerback 34.3524 -0.0564671 -1.07314
upperback 15.0354 -2.26816 0.609881
thorax -0.896432 -1.95001 1.90206
lowerneck 4.87228 -12.9047 -4.5392
upperneck -26.2553 -15.2169 21.8239
head -6.50472 -9.80689 8.88242
rclavicle -3.02153e-014 -3.77691e-014
rhumerus -14.1484 8.23133 -73.7509
rradius 57.8626
rwrist -4.72949
rhand -27.322 -5.93025
rfingers 7.12502
rthumb -0.731098 -35.9087
lclavicle -3.02153e-014 -3.77691e-014
lhumerus -1.4559 -13.2269 62.1527
lradius 58.8648
lwrist 31.0523
lhand -27.6073 1.58499
lfingers 7.12502
lthumb -1.00664 31.5624
rfemur -53.5455 -8.26513 23.8581
rtibia 63.4812
rfoot -31.7848 -30.4576
rtoes 3.68165
lfemur -48.4279 18.4435 -26.5767
ltibia 57.101
lfoot -21.3598 19.093
ltoes -3.23757
